<svg width="627" height="525" viewBox="0 0 627 525" fill="none" xmlns="http://www.w3.org/2000/svg">
<rect width="627" height="525" fill="black"/>
<path d="M105.5 349.8L123.3 300.3H131.9L149.7 349.8H141.8L137.3 336.7H118L113.5 349.8H105.5ZM135.1 330.5L127.8 309.4H127.4L120.1 330.5H135.1Z" fill="white"/>
<path d="M156.3 312.7H163.3V318.6H163.7C165.1 314.6 168.8 312.2 173.1 312.2C174 312.2 175.4 312.3 176.2 312.4V319.3C175.6 319.1 173.9 318.9 172.4 318.9C167.3 318.9 163.5 322.4 163.5 327.3V350H156.3V312.7Z" fill="white"/>
<path d="M179.4 331.5C179.4 320.2 186.2 312.3 196.6 312.3C205 312.3 211.1 317.3 211.9 324.8H204.9C204.1 321.3 201.3 318.4 196.7 318.4C190.7 318.4 186.7 323.4 186.7 331.3C186.7 339.4 190.6 344.5 196.7 344.5C200.8 344.5 203.9 342.1 204.9 338.1H211.9C211.1 345.3 205.4 350.6 196.7 350.6C185.9 350.6 179.4 342.7 179.4 331.5Z" fill="white"/>
<path d="M226.9 349.8H219.7V300.3H226.8V318.7H227.3C229 314.7 232.5 312.2 238.3 312.2C245.9 312.2 251 316.9 251 326.2V349.8H243.8V327.1C243.8 321.7 240.8 318.5 235.9 318.5C230.8 318.5 227 321.9 227 327.8V349.8H226.9Z" fill="white"/>
<path d="M259.7 302.7C259.7 300.3 261.8 298.4 264.3 298.4C266.8 298.4 268.9 300.4 268.9 302.7C268.9 305 266.8 307 264.3 307C261.7 307 259.7 305.1 259.7 302.7ZM260.6 312.7H267.8V349.8H260.6V312.7Z" fill="white"/>
<path d="M294.9 318.5H287.3V339C287.3 343.2 289.4 344 291.7 344C292.9 344 293.8 343.8 294.2 343.7L295.5 349.7C294.7 350 293.1 350.4 290.8 350.5C285.1 350.6 280 347.4 280 340.6V318.7H274.6V312.9H280V304H287.2V312.9H294.8V318.5H294.9Z" fill="white"/>
<path d="M300.8 331.5C300.8 320.1 307.6 312.2 317.9 312.2C326.3 312.2 334.3 317.4 334.3 330.8V333.4H308C308.2 340.5 312.3 344.6 318.5 344.6C322.6 344.6 325.7 342.8 327.1 339.3L333.9 340.5C332.3 346.5 326.5 350.5 318.4 350.5C307.5 350.6 300.8 343.1 300.8 331.5ZM327.3 328.1C327.3 322.4 323.6 318.3 318 318.3C312.1 318.3 308.3 322.9 308 328.1H327.3Z" fill="white"/>
<path d="M340.7 331.5C340.7 320.2 347.5 312.3 357.9 312.3C366.3 312.3 372.4 317.3 373.2 324.8H366.2C365.4 321.3 362.6 318.4 358 318.4C352 318.4 348 323.4 348 331.3C348 339.4 351.9 344.5 358 344.5C362.1 344.5 365.2 342.1 366.2 338.1H373.2C372.4 345.3 366.7 350.6 358 350.6C347.2 350.6 340.7 342.7 340.7 331.5Z" fill="white"/>
<path d="M398.3 318.5H390.7V339C390.7 343.2 392.8 344 395.1 344C396.3 344 397.2 343.8 397.6 343.7L398.9 349.7C398.1 350 396.5 350.4 394.2 350.5C388.5 350.6 383.4 347.4 383.4 340.6V318.7H378V312.9H383.4V304H390.6V312.9H398.2V318.5H398.3Z" fill="white"/>
<path d="M429.8 312.7H437V349.8H429.9V343.4H429.5C427.8 347.4 424 350.3 418.4 350.3C411.3 350.3 406.2 345.5 406.2 336.3V312.7H413.4V335.4C413.4 340.4 416.5 343.7 421 343.7C425.1 343.7 429.7 340.7 429.7 334.4V312.7H429.8Z" fill="white"/>
<path d="M446.7 312.7H453.7V318.6H454.1C455.5 314.6 459.2 312.2 463.5 312.2C464.4 312.2 465.8 312.3 466.6 312.4V319.3C466 319.1 464.3 318.9 462.8 318.9C457.7 318.9 453.9 322.4 453.9 327.3V350H446.7V312.7Z" fill="white"/>
<path d="M470.7 339.4C470.7 331 477.9 329.1 484.9 328.3C491.6 327.5 494.3 327.6 494.3 324.9V324.7C494.3 320.5 491.9 318.1 487.2 318.1C482.3 318.1 479.6 320.6 478.6 323.3L471.8 321.8C474.2 315 480.4 312.3 487.1 312.3C493 312.3 501.5 314.5 501.5 325.2V349.8H494.4V344.7H494.1C492.7 347.5 489.3 350.6 483.1 350.6C476.2 350.7 470.7 346.7 470.7 339.4ZM494.4 336.5V331.7C493.4 332.7 487.8 333.4 485.5 333.7C481.3 334.3 477.9 335.6 477.9 339.5C477.9 343.1 480.8 344.9 484.9 344.9C490.9 344.9 494.4 340.9 494.4 336.5Z" fill="white"/>
<path d="M518.4 349.8H511.2V300.3H518.4V349.8Z" fill="white"/>
<path d="M261 391.8C259.8 385.4 254.5 381.8 248.2 381.8C239.7 381.8 233.3 388.4 233.3 400.4C233.3 412.5 239.7 419 248.2 419C254.5 419 259.8 415.5 261 409.2H268.5C266.9 419 258.9 425.8 248.1 425.8C235.2 425.8 225.9 416.2 225.9 400.4C225.9 384.6 235.3 375 248.1 375C258.6 375 266.8 381.2 268.5 391.8H261V391.8Z" fill="white"/>
<path d="M284.1 425.2H276.9V375.7H284.1V425.2Z" fill="white"/>
<path d="M292.1 414.7C292.1 406.3 299.3 404.4 306.3 403.6C313 402.8 315.7 402.9 315.7 400.2V400C315.7 395.8 313.3 393.4 308.6 393.4C303.7 393.4 301 395.9 300 398.6L293.2 397.1C295.6 390.3 301.8 387.6 308.5 387.6C314.4 387.6 322.9 389.8 322.9 400.5V425.1H315.8V420H315.5C314.1 422.8 310.7 425.9 304.5 425.9C297.6 426 292.1 422 292.1 414.7ZM315.7 411.8V407C314.7 408 309.1 408.7 306.8 409C302.6 409.6 299.2 410.9 299.2 414.8C299.2 418.4 302.1 420.2 306.2 420.2C312.2 420.2 315.7 416.2 315.7 411.8Z" fill="white"/>
<path d="M353.8 398.3C353 395.8 350.9 393.3 346.4 393.3C342.3 393.3 339.2 395.3 339.2 398.2C339.2 400.7 340.9 402.1 345 403.1L350.9 404.5C357.7 406.1 361 409.3 361 414.5C361 421.2 354.8 426 345.8 426C337.5 426 332 422.3 330.8 415.7L337.8 414.6C338.7 418.2 341.4 420.1 345.8 420.1C350.5 420.1 353.6 417.9 353.6 415C353.6 412.7 351.9 411.1 348.4 410.3L342.1 408.9C335.1 407.4 332 403.9 332 398.6C332 392 337.9 387.6 346.3 387.6C354.3 387.6 358.8 391.4 360.3 397.1L353.8 398.3Z" fill="white"/>
<path d="M376.2 425.2H369V375.7H376.1V394.1H376.6C378.3 390.1 381.8 387.6 387.6 387.6C395.2 387.6 400.3 392.3 400.3 401.6V425.2H393V402.5C393 397.1 390 393.9 385.1 393.9C380 393.9 376.2 397.3 376.2 403.2V425.2V425.2Z" fill="white"/>
<path d="M328.223 99.4764L321.859 105.841L329.921 113.902L336.285 107.537L328.223 99.4764Z" fill="black"/>
<path d="M375.4 121.9L340.6 87.1L346.3 81.4L354.4 89.5L360.8 83.1L352.7 75L346.6 81.1L339.1 73.6L333.1 79.6L327.1 73.6L320.7 80L326.7 86L320.4 92.3L327.9 99.8L334.2 93.5L369 128.3C384.2 143.5 392.6 163.8 392.6 185.3C392.6 206.8 384.2 227.1 369 242.3C353.8 257.5 333.6 266 312.1 266H312C291.4 266 272.1 258 257.1 243.9C230.2 217 230.2 173.2 257.1 146.3C284 119.4 327.8 119.4 354.7 146.3C365.5 157.1 371.3 171.8 371.3 187.1C371.3 202.4 365.3 216.8 354.5 227.6C332.2 249.9 295.9 249.7 273.6 227.4C255.7 209.5 255.7 180.3 273.6 162.4C282.3 153.7 293.8 148.9 306.1 148.9C317.7 148.9 328.6 153.2 337.1 161C350.1 174.3 350 195.7 336.8 208.9C323.5 222.2 302 222.2 288.7 209C284.4 204.7 282 198.9 282 192.8C282 186.7 284.4 180.9 288.7 176.5C291 174.2 293.8 172.4 296.7 171.3C289.8 179.5 290.2 191.8 297.9 199.5C301.8 203.4 307.1 205.6 312.7 205.6C318.3 205.6 323.5 203.4 327.5 199.5C335.6 191.4 335.6 178.3 327.7 170.1L327.6 170C327.6 170 327.6 170 327.5 169.9C327.4 169.8 327.4 169.8 327.3 169.7C314.8 157.6 294.8 157.7 282.4 170C276.4 176 273 184.1 273 192.6C273 201.1 276.3 209 282.2 215.1C282.2 215.1 282.2 215.1 282.3 215.2L282.4 215.3C290.8 223.6 301.8 227.7 312.7 227.7C323.7 227.7 334.8 223.5 343.2 215.1C359.4 198.9 360.4 172.7 343.2 154.1C333.1 144.8 320 139.7 306.2 139.7C291.5 139.7 277.7 145.5 267.3 155.8C245.9 177.2 245.9 212.1 267.3 233.5C280.2 246.4 297.2 253 314.1 253C331.1 253 348 246.5 360.9 233.6C373.4 221.1 380.3 204.4 380.3 186.8C380.3 169.1 373.6 152.1 361.1 139.6C330.7 109.2 281.2 109.2 250.8 139.6C221 169.4 220.4 217.4 248.9 247.9C265.8 264.8 288.1 274.6 312 274.6H312.1C336 274.6 358.4 265.2 375.3 248.3C392.2 231.4 401.5 208.7 401.5 184.8C401.6 161.3 392.3 138.8 375.4 121.9ZM304.2 176.5C306.4 174.3 309.4 173 312.6 173C315.3 173 317.9 173.9 320 175.6C320.4 175.9 320.7 176.2 321.1 176.6C325.6 181.2 325.6 188.7 321 193.3C318.8 195.5 315.8 196.8 312.6 196.8C309.4 196.8 306.4 195.6 304.2 193.3C299.6 188.6 299.6 181.1 304.2 176.5Z" fill="#6039E2"/>
</svg>
