<svg width="827" height="325" viewBox="0 0 827 325" fill="none" xmlns="http://www.w3.org/2000/svg">
<rect width="827" height="325" fill="#6039E2"/>
<path d="M307.423 160.4L325.223 110.9H333.823L351.623 160.4H343.723L339.223 147.3H319.923L315.423 160.4H307.423ZM337.023 141L329.723 119.9H329.323L322.023 141H337.023Z" fill="white"/>
<path d="M358.223 123.3H365.223V129.2H365.623C367.023 125.2 370.723 122.8 375.023 122.8C375.923 122.8 377.323 122.9 378.123 123V129.9C377.523 129.7 375.823 129.5 374.323 129.5C369.223 129.5 365.423 133 365.423 137.9V160.4H358.223V123.3Z" fill="white"/>
<path d="M381.323 142C381.323 130.7 388.123 122.8 398.523 122.8C406.923 122.8 413.023 127.8 413.823 135.3H406.823C406.023 131.8 403.223 128.9 398.623 128.9C392.623 128.9 388.623 133.9 388.623 141.8C388.623 149.9 392.523 155 398.623 155C402.723 155 405.823 152.6 406.823 148.6H413.823C413.023 155.8 407.323 161.1 398.623 161.1C387.823 161.2 381.323 153.2 381.323 142Z" fill="white"/>
<path d="M428.823 160.4H421.623V110.9H428.723V129.4H429.223C430.923 125.4 434.423 122.9 440.223 122.9C447.823 122.9 452.923 127.6 452.923 136.9V160.4H445.723V137.7C445.723 132.3 442.723 129.1 437.823 129.1C432.723 129.1 428.923 132.5 428.923 138.4V160.4H428.823Z" fill="white"/>
<path d="M461.623 113.3C461.623 110.9 463.723 109 466.223 109C468.723 109 470.823 111 470.823 113.3C470.823 115.6 468.723 117.6 466.223 117.6C463.623 117.6 461.623 115.7 461.623 113.3ZM462.523 123.3H469.723V160.4H462.523V123.3Z" fill="white"/>
<path d="M496.823 129.1H489.223V149.5C489.223 153.7 491.323 154.5 493.623 154.5C494.823 154.5 495.723 154.3 496.123 154.2L497.423 160.2C496.623 160.5 495.023 160.9 492.723 161C487.023 161.1 481.923 157.9 481.923 151.1V129.2H476.523V123.4H481.923V114.4H489.123V123.3H496.723V129.1H496.823Z" fill="white"/>
<path d="M502.723 142.1C502.723 130.7 509.523 122.8 519.923 122.8C528.323 122.8 536.323 128 536.323 141.4V144H509.923C510.123 151.1 514.223 155.2 520.423 155.2C524.523 155.2 527.623 153.4 529.023 149.9L535.823 151.1C534.223 157.1 528.423 161.1 520.323 161.1C509.423 161.2 502.723 153.6 502.723 142.1ZM529.223 138.6C529.223 132.9 525.523 128.8 519.923 128.8C514.023 128.8 510.223 133.4 509.923 138.6H529.223Z" fill="white"/>
<path d="M542.623 142C542.623 130.7 549.423 122.8 559.823 122.8C568.223 122.8 574.323 127.8 575.123 135.3H568.123C567.323 131.8 564.523 128.9 559.923 128.9C553.923 128.9 549.923 133.9 549.923 141.8C549.923 149.9 553.823 155 559.923 155C564.023 155 567.123 152.6 568.123 148.6H575.123C574.323 155.8 568.623 161.1 559.923 161.1C549.123 161.2 542.623 153.2 542.623 142Z" fill="white"/>
<path d="M600.223 129.1H592.623V149.5C592.623 153.7 594.723 154.5 597.023 154.5C598.223 154.5 599.123 154.3 599.523 154.2L600.823 160.2C600.023 160.5 598.423 160.9 596.123 161C590.423 161.1 585.323 157.9 585.323 151.1V129.2H579.923V123.4H585.323V114.4H592.523V123.3H600.123V129.1H600.223Z" fill="white"/>
<path d="M631.723 123.3H638.923V160.4H631.823V154H631.423C629.723 158 625.923 160.9 620.323 160.9C613.223 160.9 608.123 156.1 608.123 146.9V123.3H615.323V146C615.323 151 618.423 154.3 622.923 154.3C627.023 154.3 631.623 151.3 631.623 145V123.3H631.723Z" fill="white"/>
<path d="M648.623 123.3H655.623V129.2H656.023C657.423 125.2 661.123 122.8 665.423 122.8C666.323 122.8 667.723 122.9 668.523 123V129.9C667.923 129.7 666.223 129.5 664.723 129.5C659.623 129.5 655.823 133 655.823 137.9V160.4H648.623V123.3Z" fill="white"/>
<path d="M672.623 149.9C672.623 141.5 679.823 139.6 686.823 138.8C693.523 138 696.223 138.1 696.223 135.4V135.2C696.223 131 693.823 128.6 689.123 128.6C684.223 128.6 681.523 131.1 680.523 133.8L673.723 132.3C676.123 125.5 682.323 122.8 689.023 122.8C694.923 122.8 703.423 125 703.423 135.7V160.4H696.323V155.3H696.023C694.623 158.1 691.223 161.2 685.023 161.2C678.123 161.2 672.623 157.2 672.623 149.9ZM696.323 147V142.2C695.323 143.2 689.723 143.9 687.423 144.2C683.223 144.8 679.823 146.1 679.823 150C679.823 153.6 682.723 155.4 686.823 155.4C692.823 155.4 696.323 151.4 696.323 147Z" fill="white"/>
<path d="M720.323 160.4H713.123V110.9H720.323V160.4Z" fill="white"/>
<path d="M344.723 202.4C343.523 196 338.223 192.4 331.923 192.4C323.423 192.4 317.023 199 317.023 211C317.023 223.1 323.423 229.6 331.923 229.6C338.223 229.6 343.523 226.1 344.723 219.8H352.223C350.623 229.6 342.623 236.4 331.823 236.4C318.923 236.4 309.623 226.8 309.623 211C309.623 195.2 319.023 185.6 331.823 185.6C342.323 185.6 350.523 191.8 352.223 202.4H344.723V202.4Z" fill="white"/>
<path d="M367.823 235.7H360.623V186.2H367.823V235.7Z" fill="white"/>
<path d="M375.823 225.3C375.823 216.9 383.023 215 390.023 214.2C396.723 213.4 399.423 213.5 399.423 210.8V210.6C399.423 206.4 397.023 204 392.323 204C387.423 204 384.723 206.5 383.723 209.2L376.923 207.7C379.323 200.9 385.523 198.2 392.223 198.2C398.123 198.2 406.623 200.4 406.623 211.1V235.7H399.523V230.6H399.223C397.823 233.4 394.423 236.5 388.223 236.5C381.323 236.6 375.823 232.6 375.823 225.3ZM399.423 222.4V217.6C398.423 218.6 392.823 219.3 390.523 219.6C386.323 220.2 382.923 221.5 382.923 225.4C382.923 229 385.823 230.8 389.923 230.8C395.923 230.8 399.423 226.8 399.423 222.4Z" fill="white"/>
<path d="M437.523 208.9C436.723 206.4 434.623 203.9 430.123 203.9C426.023 203.9 422.923 205.9 422.923 208.8C422.923 211.3 424.623 212.7 428.723 213.7L434.623 215.1C441.423 216.7 444.723 219.9 444.723 225.1C444.723 231.8 438.523 236.6 429.523 236.6C421.223 236.6 415.723 232.9 414.523 226.3L421.523 225.2C422.423 228.8 425.123 230.7 429.523 230.7C434.223 230.7 437.323 228.5 437.323 225.6C437.323 223.3 435.623 221.7 432.123 220.9L425.823 219.5C418.823 218 415.723 214.5 415.723 209.2C415.723 202.6 421.623 198.2 430.023 198.2C438.023 198.2 442.523 202 444.023 207.7L437.523 208.9Z" fill="white"/>
<path d="M459.923 235.7H452.723V186.2H459.823V204.6H460.323C462.023 200.6 465.523 198.1 471.323 198.1C478.923 198.1 484.023 202.8 484.023 212.1V235.7H476.823V213C476.823 207.6 473.823 204.4 468.923 204.4C463.823 204.4 460.023 207.8 460.023 213.7V235.7H459.923Z" fill="white"/>
<path d="M206.238 87.8803L199.874 94.2451L207.936 102.306L214.3 95.9412L206.238 87.8803Z" fill="white"/>
<path d="M253.423 110.3L218.623 75.5L224.323 69.8L232.423 77.9L238.823 71.5L230.723 63.4L224.623 69.5L217.123 62L211.123 68L205.123 62L198.723 68.4L204.723 74.4L198.423 80.7L205.923 88.2L212.223 81.9L247.023 116.7C262.223 131.9 270.623 152.2 270.623 173.7C270.623 195.2 262.223 215.5 247.023 230.7C231.823 245.9 211.623 254.4 190.123 254.4H190.023C169.423 254.4 150.123 246.4 135.123 232.3C108.223 205.4 108.223 161.6 135.123 134.7C162.023 107.8 205.823 107.8 232.723 134.7C243.523 145.5 249.323 160.2 249.323 175.5C249.323 190.8 243.323 205.2 232.523 216C210.223 238.3 173.923 238.1 151.623 215.8C133.723 197.9 133.723 168.7 151.623 150.8C160.323 142.1 171.823 137.3 184.123 137.3C195.723 137.3 206.623 141.6 215.123 149.4C228.123 162.7 228.023 184.1 214.823 197.3C201.523 210.6 180.023 210.6 166.723 197.4C162.423 193.1 160.023 187.3 160.023 181.2C160.023 175.1 162.423 169.3 166.723 164.9C169.023 162.6 171.823 160.8 174.723 159.7C167.823 167.9 168.223 180.2 175.923 187.9C179.823 191.8 185.123 194 190.723 194C196.323 194 201.523 191.8 205.523 187.9C213.623 179.8 213.623 166.7 205.723 158.5L205.623 158.4C205.623 158.4 205.623 158.4 205.523 158.3C205.423 158.2 205.423 158.2 205.323 158.1C192.823 146 172.823 146.1 160.423 158.4C154.423 164.4 151.023 172.5 151.023 181C151.023 189.5 154.323 197.4 160.223 203.5C160.223 203.5 160.223 203.5 160.323 203.6L160.423 203.7C168.823 212 179.823 216.1 190.723 216.1C201.723 216.1 212.823 211.9 221.223 203.5C237.423 187.3 238.423 161.1 221.223 142.5C211.123 133.2 198.023 128.1 184.223 128.1C169.523 128.1 155.723 133.9 145.323 144.2C123.923 165.6 123.923 200.5 145.323 221.9C158.223 234.8 175.223 241.4 192.123 241.4C209.123 241.4 226.023 234.9 238.923 222C251.423 209.5 258.323 192.8 258.323 175.2C258.323 157.5 251.623 140.5 239.123 128C208.723 97.6 159.223 97.6 128.823 128C99.0226 157.8 98.4226 205.8 126.923 236.3C143.823 253.2 166.123 263 190.023 263H190.123C214.023 263 236.423 253.6 253.323 236.7C270.223 219.8 279.523 197.1 279.523 173.2C279.623 149.7 270.323 127.2 253.423 110.3ZM182.223 164.9C184.423 162.7 187.423 161.4 190.623 161.4C193.323 161.4 195.923 162.3 198.023 164C198.423 164.3 198.723 164.6 199.123 165C203.623 169.6 203.623 177.1 199.023 181.7C196.823 183.9 193.823 185.2 190.623 185.2C187.423 185.2 184.423 184 182.223 181.7C177.623 177 177.623 169.5 182.223 164.9Z" fill="white"/>
</svg>
