<svg width="327" height="325" viewBox="0 0 327 325" fill="none" xmlns="http://www.w3.org/2000/svg">
<rect width="327" height="325" fill="black"/>
<path d="M177.214 77.4813L170.851 83.8461L178.913 91.907L185.277 85.5422L177.214 77.4813Z" fill="#6039E2"/>
<path d="M224.4 99.9L189.6 65.1L195.3 59.4L203.4 67.5L209.8 61.1L201.7 53L195.6 59.1L188.1 51.6L182.1 57.6L176.1 51.6L169.7 58L175.7 64L169.4 70.3L176.9 77.8L183.2 71.5L218 106.3C233.2 121.5 241.6 141.8 241.6 163.3C241.6 184.8 233.2 205.1 218 220.3C202.8 235.5 182.6 244 161.1 244H161C140.4 244 121.1 236 106.1 221.9C79.2001 195 79.2001 151.2 106.1 124.3C133 97.4 176.8 97.4 203.7 124.3C214.5 135.1 220.3 149.8 220.3 165.1C220.3 180.4 214.3 194.8 203.5 205.6C181.2 227.9 144.9 227.7 122.6 205.4C104.7 187.5 104.7 158.3 122.6 140.4C131.3 131.7 142.8 126.9 155.1 126.9C166.7 126.9 177.6 131.2 186.1 139C199.1 152.3 199 173.7 185.8 186.9C172.5 200.2 151 200.2 137.7 187C133.4 182.7 131 176.9 131 170.8C131 164.7 133.4 158.9 137.7 154.5C140 152.2 142.8 150.4 145.7 149.3C138.8 157.5 139.2 169.8 146.9 177.5C150.8 181.4 156.1 183.6 161.7 183.6C167.3 183.6 172.5 181.4 176.5 177.5C184.6 169.4 184.6 156.3 176.7 148.1L176.6 148C176.6 148 176.6 148 176.5 147.9C176.4 147.8 176.4 147.8 176.3 147.7C163.8 135.6 143.8 135.7 131.4 148C125.4 154 122 162.1 122 170.6C122 179.1 125.3 187 131.2 193.1C131.2 193.1 131.2 193.1 131.3 193.2L131.4 193.3C139.8 201.6 150.8 205.7 161.7 205.7C172.7 205.7 183.8 201.5 192.2 193.1C208.4 176.9 209.4 150.7 192.2 132.1C182.1 122.8 169 117.7 155.2 117.7C140.5 117.7 126.7 123.5 116.3 133.8C94.9001 155.2 94.9001 190.1 116.3 211.5C129.2 224.4 146.2 231 163.1 231C180.1 231 197 224.5 209.9 211.6C222.4 199.1 229.3 182.4 229.3 164.8C229.3 147.1 222.6 130.1 210.1 117.6C179.7 87.2 130.2 87.2 99.8001 117.6C70.0001 147.4 69.4001 195.4 97.9001 225.9C114.8 242.8 137.1 252.6 161 252.6H161.1C185 252.6 207.4 243.2 224.3 226.3C241.2 209.4 250.5 186.7 250.5 162.8C250.6 139.3 241.3 116.8 224.4 99.9ZM153.2 154.5C155.4 152.3 158.4 151 161.6 151C164.3 151 166.9 151.9 169 153.6C169.4 153.9 169.7 154.2 170.1 154.6C174.6 159.2 174.6 166.7 170 171.3C167.8 173.5 164.8 174.8 161.6 174.8C158.4 174.8 155.4 173.6 153.2 171.3C148.6 166.6 148.6 159.1 153.2 154.5Z" fill="#6039E2"/>
</svg>
